<?xml version="1.0" encoding="UTF-8" standalone="no"?>
<svg width="512" height="512" viewBox="0 0 512 512" xmlns="http://www.w3.org/2000/svg">
  <!-- Fox face -->
  <g transform="translate(50,40) scale(0.85)">
    <!-- Fox body with gradient -->
    <path d="M256,100 L156,180 C156,180 100,260 100,330 C100,400 156,450 256,450 C356,450 412,400 412,330 C412,260 356,180 356,180 L256,100 Z" 
          fill="url(#foxGradient)" stroke="#333" stroke-width="2" />

    <!-- Fox ear left -->
    <path d="M156,180 L170,80 L220,150 Z" fill="#ff9933" stroke="#333" stroke-width="2" />
    
    <!-- Fox ear right -->
    <path d="M356,180 L342,80 L292,150 Z" fill="#ff9933" stroke="#333" stroke-width="2" />
    
    <!-- Fox white snout -->
    <path d="M256,450 L210,280 L220,240 L256,260 L292,240 L302,280 L256,450 Z" fill="white" stroke="#333" stroke-width="2" />
    
    <!-- Fox eyes left -->
    <circle cx="210" cy="220" r="15" fill="#333" />
    <circle cx="210" cy="216" r="4" fill="white" />
    
    <!-- Fox eyes right -->
    <circle cx="302" cy="220" r="15" fill="#333" />
    <circle cx="302" cy="216" r="4" fill="white" />
    
    <!-- Fox nose -->
    <ellipse cx="256" cy="260" rx="20" ry="12" fill="#333" />
  </g>

  <!-- Turquoise elements -->
  <g fill="#00FFDD" stroke="#333" stroke-width="2">
    <!-- Heart rate lines -->
    <path d="M120,400 L140,400 L150,380 L160,420 L170,400 L190,400" fill="none" />
    <path d="M322,400 L342,400 L352,380 L362,420 L372,400 L392,400" fill="none" />
    
    <!-- Server rack left -->
    <rect x="80" y="320" width="10" height="60" rx="2" />
    <rect x="70" y="330" width="10" height="40" rx="2" />
    <rect x="90" y="310" width="10" height="80" rx="2" />
    
    <!-- Server rack right -->
    <rect x="422" y="320" width="10" height="60" rx="2" />
    <rect x="432" y="330" width="10" height="40" rx="2" />
    <rect x="412" y="310" width="10" height="80" rx="2" />
    
    <!-- Circular monitor indicator -->
    <circle cx="256" cy="256" r="180" fill="none" />
  </g>

  <!-- Monitoring dots -->
  <circle cx="180" cy="440" r="8" fill="#00FFDD" />
  <circle cx="200" cy="440" r="8" fill="#00FFDD" />
  <circle cx="312" cy="440" r="8" fill="#00FFDD" />
  <circle cx="332" cy="440" r="8" fill="#00FFDD" />

  <!-- Definitions -->
  <defs>
    <linearGradient id="foxGradient" x1="0%" y1="0%" x2="100%" y2="100%">
      <stop offset="0%" style="stop-color:#ff6600;stop-opacity:1" />
      <stop offset="100%" style="stop-color:#ff9933;stop-opacity:1" />
    </linearGradient>
  </defs>
</svg>